<svg width="24" height="24" viewBox="0 0 24 24" fill="none" xmlns="http://www.w3.org/2000/svg">
<path d="M8.91429 0C11.2785 0 13.5459 0.939181 15.2176 2.61093C16.8894 4.28269 17.8286 6.55007 17.8286 8.91429C17.8286 10.9928 17.1116 12.9133 15.9178 14.4356C15.7918 14.5962 15.8004 14.8266 15.9447 14.971C16.0182 15.0444 16.1178 15.0857 16.2217 15.0857H16.9358C17.0684 15.0857 17.1955 15.1384 17.2893 15.2322L23.6464 21.5893C23.8417 21.7846 23.8417 22.1011 23.6464 22.2964L22.2964 23.6464C22.1011 23.8417 21.7846 23.8417 21.5893 23.6464L15.2322 17.2893C15.1384 17.1955 15.0857 17.0684 15.0857 16.9358V16.2217C15.0857 16.1178 15.0444 16.0182 14.971 15.9447C14.8266 15.8004 14.5962 15.7918 14.4356 15.9178C12.9133 17.1116 10.9928 17.8286 8.91429 17.8286C6.55007 17.8286 4.28269 16.8894 2.61093 15.2176C0.939181 13.5459 0 11.2785 0 8.91429C0 6.55007 0.939181 4.28269 2.61093 2.61093C4.28269 0.939181 6.55007 0 8.91429 0ZM8.91429 2.74286C5.48571 2.74286 2.74286 5.48571 2.74286 8.91429C2.74286 12.3429 5.48571 15.0857 8.91429 15.0857C12.3429 15.0857 15.0857 12.3429 15.0857 8.91429C15.0857 5.48571 12.3429 2.74286 8.91429 2.74286Z" fill="#1B2130"/>
</svg>
