<svg width="119" height="22" viewBox="0 0 119 22" fill="none" xmlns="http://www.w3.org/2000/svg">
<path d="M42.9363 4.15H44.4303V16.552H42.9363V4.15ZM40.1823 8.452H43.5663V9.676H40.1823V8.452ZM40.1823 11.89H43.5663V13.096H40.1823V11.89ZM31.0743 6.112H40.1823V7.318H31.0743V6.112ZM35.6823 8.218C37.8423 8.218 39.3543 9.46 39.3543 11.332C39.3543 13.186 37.8423 14.446 35.6823 14.446C33.5043 14.446 31.9923 13.186 31.9923 11.332C31.9923 9.46 33.5043 8.218 35.6823 8.218ZM35.6823 9.388C34.3323 9.388 33.4143 10.18 33.4143 11.332C33.4143 12.484 34.3323 13.258 35.6823 13.258C37.0323 13.258 37.9503 12.484 37.9503 11.332C37.9503 10.18 37.0323 9.388 35.6823 9.388ZM34.9443 4.114H36.4383V6.886H34.9443V4.114ZM33.9723 18.82H44.8263V20.044H33.9723V18.82ZM33.9723 15.49H35.4663V19.414H33.9723V15.49ZM60.0528 4.132H61.4748V20.404H60.0528V4.132ZM57.4788 10.684H60.6108V11.944H57.4788V10.684ZM56.5068 4.474H57.9108V19.594H56.5068V4.474ZM50.9628 6.652H52.1328V8.524C52.1328 12.43 50.8548 15.562 48.3528 17.056L47.4348 15.904C49.7748 14.608 50.9628 11.836 50.9628 8.524V6.652ZM51.2328 6.652H52.4028V8.524C52.4028 11.512 53.6088 14.158 55.8948 15.328L55.0128 16.48C52.5288 15.112 51.2328 12.106 51.2328 8.524V6.652ZM47.8128 6.04H55.3728V7.282H47.8128V6.04ZM80.5468 4.132H81.9868V20.404H80.5468V4.132ZM77.8108 10.756H80.9428V11.98H77.8108V10.756ZM76.8568 4.492H78.2608V19.576H76.8568V4.492ZM68.9728 6.094H70.4668V15.49H68.9728V6.094ZM68.9728 14.896H70.0168C71.6908 14.896 73.5628 14.788 75.6868 14.374L75.8488 15.67C73.6348 16.102 71.7628 16.192 70.0168 16.192H68.9728V14.896ZM94.0928 4.888C96.5228 4.888 98.2508 6.238 98.2508 8.236C98.2508 10.216 96.5228 11.602 94.0928 11.602C91.6808 11.602 89.9528 10.216 89.9528 8.236C89.9528 6.238 91.6808 4.888 94.0928 4.888ZM94.0928 6.13C92.5088 6.13 91.3748 6.994 91.3748 8.236C91.3748 9.496 92.5088 10.342 94.0928 10.342C95.6768 10.342 96.8108 9.496 96.8108 8.236C96.8108 6.994 95.6768 6.13 94.0928 6.13ZM93.4268 13.402H94.9208V19.9H93.4268V13.402ZM100.627 4.132H102.103V20.422H100.627V4.132ZM88.9448 14.212L88.7468 12.952C91.7708 12.952 95.8928 12.916 99.4748 12.376L99.5828 13.492C95.9108 14.158 91.9148 14.212 88.9448 14.212ZM117.167 4.132H118.661V20.404H117.167V4.132ZM109.841 8.002H111.047V9.388C111.047 12.862 109.085 16.012 106.475 17.272L105.629 16.12C108.041 15.004 109.841 12.232 109.841 9.388V8.002ZM110.129 8.002H111.317V9.388C111.317 12.106 113.171 14.752 115.601 15.814L114.755 16.984C112.127 15.796 110.129 12.754 110.129 9.388V8.002ZM106.079 6.958H115.043V8.164H106.079V6.958ZM109.841 4.42H111.335V7.624H109.841V4.42Z" fill="#007AFF"/>
<path d="M2.19118 12.8867C2.0855 12.387 1.66286 12 1.15211 12H1C0.447716 12 0 11.5523 0 11C0 10.4477 0.447715 10 1 10H1.15211C1.66286 10 2.0855 9.61305 2.19118 9.11334C2.92227 5.65623 5.65623 2.92227 9.11334 2.19118C9.61305 2.0855 10 1.66286 10 1.15211V1C10 0.447716 10.4477 0 11 0C11.5523 0 12 0.447715 12 1V1.15211C12 1.66286 12.387 2.0855 12.8867 2.19118C16.3438 2.92227 19.0777 5.65623 19.8088 9.11334C19.9145 9.61305 20.3371 10 20.8479 10H21C21.5523 10 22 10.4477 22 11C22 11.5523 21.5523 12 21 12H20.8479C20.3371 12 19.9145 12.387 19.8088 12.8867C19.0777 16.3438 16.3438 19.0777 12.8867 19.8088C12.387 19.9145 12 20.3371 12 20.8479V21C12 21.5523 11.5523 22 11 22C10.4477 22 10 21.5523 10 21V20.8479C10 20.3371 9.61305 19.9145 9.11334 19.8088C5.65623 19.0777 2.92227 16.3438 2.19118 12.8867ZM11 4C9.14348 4 7.36301 4.7375 6.05025 6.05025C4.7375 7.36301 4 9.14348 4 11C4 12.8565 4.7375 14.637 6.05025 15.9497C7.36301 17.2625 9.14348 18 11 18C12.8565 18 14.637 17.2625 15.9497 15.9497C17.2625 14.637 18 12.8565 18 11C18 9.14348 17.2625 7.36301 15.9497 6.05025C14.637 4.7375 12.8565 4 11 4Z" fill="#007AFF"/>
<circle cx="11" cy="11" r="5" fill="#007AFF"/>
</svg>
