<svg width="8" height="9" viewBox="0 0 8 9" fill="none" xmlns="http://www.w3.org/2000/svg">
<path d="M7.64645 1.65927C7.84171 1.46401 7.84171 1.14742 7.64645 0.952161L7.54784 0.853553C7.35258 0.658291 7.036 0.658291 6.84073 0.853553L4.35355 3.34073C4.15829 3.53599 3.84171 3.53599 3.64645 3.34073L1.15927 0.853554C0.964006 0.658292 0.647423 0.658291 0.452161 0.853553L0.353553 0.952161C0.158291 1.14742 0.158291 1.46401 0.353553 1.65927L2.84073 4.14645C3.03599 4.34171 3.03599 4.65829 2.84073 4.85355L0.353554 7.34073C0.158292 7.53599 0.158291 7.85258 0.353553 8.04784L0.452161 8.14645C0.647423 8.34171 0.964005 8.34171 1.15927 8.14645L3.64645 5.65927C3.84171 5.46401 4.15829 5.46401 4.35355 5.65927L6.84073 8.14645C7.03599 8.34171 7.35258 8.34171 7.54784 8.14645L7.64645 8.04784C7.84171 7.85258 7.84171 7.536 7.64645 7.34073L5.15927 4.85355C4.96401 4.65829 4.96401 4.34171 5.15927 4.14645L7.64645 1.65927Z" fill="#79829B"/>
</svg>
